<svg id="Capa_1" data-name="Capa 1" xmlns="http://www.w3.org/2000/svg" viewBox="0 0 504.47 504.47"><defs><style>.cls-1{fill:#333;}</style></defs><path class="cls-1" d="M502.58,3.76H9.42A5.67,5.67,0,0,0,3.76,9.42V502.58a5.67,5.67,0,0,0,5.66,5.66H502.58a5.67,5.67,0,0,0,5.66-5.66V9.42A5.67,5.67,0,0,0,502.58,3.76ZM256,378.56a59.78,59.78,0,1,1-59.78-59.78H256Zm0-62.78H196.22a59.78,59.78,0,0,1,0-119.56H256Zm0-122.56H196.22a59.78,59.78,0,1,1,0-119.56H256Zm62.78,122.56A59.78,59.78,0,1,1,378.56,256,59.8,59.8,0,0,1,318.78,315.78Zm0-122.56H259V73.66h59.78a59.78,59.78,0,1,1,0,119.56Z" transform="translate(-3.76 -3.76)"/></svg>