<svg id="Capa_1" data-name="Capa 1" xmlns="http://www.w3.org/2000/svg" viewBox="0 0 504.47 504.47"><defs><style>.cls-1{fill:#333;}.cls-2{fill:#fff;}</style></defs><path class="cls-1" d="M3.76,502.58a5.67,5.67,0,0,0,5.66,5.66H502.58a5.67,5.67,0,0,0,5.66-5.66V9.42a5.67,5.67,0,0,0-5.66-5.66H9.42A5.67,5.67,0,0,0,3.76,9.42" transform="translate(-3.76 -3.76)"/><path class="cls-2" d="M192.22,443.34A60.8,60.8,0,0,0,253,382.56V321.78H192.22a60.78,60.78,0,0,0,0,121.56Z" transform="translate(-3.76 -3.76)"/><path class="cls-2" d="M131.44,256a60.8,60.8,0,0,1,60.78-60.78H253V316.78H192.22A60.8,60.8,0,0,1,131.44,256Z" transform="translate(-3.76 -3.76)"/><path class="cls-2" d="M131.44,129.44a60.8,60.8,0,0,1,60.78-60.78H253V190.22H192.22A60.8,60.8,0,0,1,131.44,129.44Z" transform="translate(-3.76 -3.76)"/><path class="cls-2" d="M260,68.66h60.78a60.78,60.78,0,1,1,0,121.56H260Z" transform="translate(-3.76 -3.76)"/><path class="cls-2" d="M380.56,256a60.78,60.78,0,1,1-60.78-60.78A60.8,60.8,0,0,1,380.56,256Z" transform="translate(-3.76 -3.76)"/></svg>