<svg id="Capa_1" data-name="Capa 1" xmlns="http://www.w3.org/2000/svg" viewBox="0 0 464.03 507.47"><defs><style>.cls-1{fill:#333;}</style></defs><path class="cls-1" d="M452.52,90.5C468.75,42.55,448.88,3,448.88,3s-33.37-8.2-92.62,35C335.89,28.6,297.5,26.69,278,26.35v0s-2.24-.05-6.06,0-6.06,0-6.06,0v0c-19.56.34-57.95,2.25-78.31,11.64C128.26-5.22,94.9,3,94.9,3S75,42.55,91.25,90.5C8.48,195.87,75.76,343,211.58,342.82c-14.33,10.3-20,27.43-22.12,45-31.67,13.1-67.95,14.54-80.24-6C75.85,326.05,40.3,326.05,40.3,326.05c-18.41,0-21,10.14-5.47,18.05,26.07,13.31,33.07,35.84,38.29,47,19,40.79,53.26,63.73,115.86,49.51.2,45.33,3.52,69.18-17.51,69.18H372.3c-21.6,0-17.5-25.16-17.5-72.93,0-23.89,6.56-73.11-22.61-94.08C468,343,535.3,195.87,452.52,90.5Z" transform="translate(-24.68 -2.36)"/></svg>