<svg id="Layer_1" data-name="Layer 1" xmlns="http://www.w3.org/2000/svg" viewBox="0 0 506.21 306.22"><defs><style>.cls-1{fill:#333;}</style></defs><path class="cls-1" d="M137.8,261.11a30.43,30.43,0,0,0-1.93,4.95q-1.4,4.17-3.38,10.43t-4.3,14q-2.32,7.77-4.76,15.85c-1.64,5.4-3.21,10.67-4.71,15.86s-2.86,9.86-4,14-2.18,7.69-3,10.53-1.28,4.49-1.46,5a32,32,0,0,1-2.12,5.58,38,38,0,0,1-3.44,5.8,21.45,21.45,0,0,1-4.38,4.56,8.07,8.07,0,0,1-4.9,1.8c-2.82,0-4.88-.95-6.16-2.83s-1.93-5.33-1.93-10.36v-2.19a21.86,21.86,0,0,1,.14-2.35,57.22,57.22,0,0,1,2-9.42q1.86-6.9,4.44-15.62c1.71-5.82,3.58-11.82,5.56-18.06s3.77-11.8,5.37-16.72q-7,7.85-15.25,15.62a162.49,162.49,0,0,1-16.82,14,98.36,98.36,0,0,1-17.37,10.12,41.13,41.13,0,0,1-16.82,3.92,30.31,30.31,0,0,1-16-4.07A35.12,35.12,0,0,1,11.51,320.9,48.29,48.29,0,0,1,5,306a67.38,67.38,0,0,1-2.12-16.64V287.3A13.22,13.22,0,0,1,3,285.42a190.24,190.24,0,0,1,4.3-30.92A249.55,249.55,0,0,1,16.55,223a291.75,291.75,0,0,1,13.18-30.68A269,269,0,0,1,46,163.94a220.36,220.36,0,0,1,18.75-24.56,149.14,149.14,0,0,1,20.4-19.31,97.44,97.44,0,0,1,21.14-12.63,53.62,53.62,0,0,1,21.14-4.55,45.53,45.53,0,0,1,23.31,6.58q11.26,6.59,21.07,21.35a17,17,0,0,1,2.84,6.68,37.41,37.41,0,0,1,.6,6.36q0,7-3.38,11.14a10.14,10.14,0,0,1-8,4.07q-4.23,0-7.87-4.48a82.78,82.78,0,0,1-8.15-12.79q-4.25-7.53-9.34-10.92a19.68,19.68,0,0,0-11.06-3.37q-9.27,0-19.82,7.7a115.71,115.71,0,0,0-20.87,20.33A222.38,222.38,0,0,0,67,184.42a301.17,301.17,0,0,0-16.77,33.27A237.94,237.94,0,0,0,38.6,251.28,119.48,119.48,0,0,0,34.3,281a70.05,70.05,0,0,0,.6,9,30.8,30.8,0,0,0,2.26,8.41,16.72,16.72,0,0,0,4.51,6.19,10.71,10.71,0,0,0,7.21,2.44q4.9,0,11.13-3.3a82.48,82.48,0,0,0,12.92-8.63,165.44,165.44,0,0,0,13.45-12.08q6.77-6.75,12.58-13.65c3.88-4.61,7.34-9,10.33-13.27A75.2,75.2,0,0,0,116,245.1l12.33-36.88q2.26-6,5.9-8.48a13.08,13.08,0,0,1,7.48-2.51,11.58,11.58,0,0,1,3.72.63,9,9,0,0,1,3.3,2,9.29,9.29,0,0,1,2.32,3.46,13.17,13.17,0,0,1,.86,4.94,71.33,71.33,0,0,1-1.33,14.14,111.5,111.5,0,0,1-3.38,12.87c-1.37,4.18-2.89,8.4-4.57,12.63s-3.29,8.63-4.87,13.24Zm167.09,30.76a126,126,0,0,1-13.57,15.31,139.38,139.38,0,0,1-16,13.26,96.1,96.1,0,0,1-16.16,9.33q-8,3.54-14.32,3.54a13.57,13.57,0,0,1-10.34-4.24q-4-4.24-4-14.45a79.09,79.09,0,0,1,2.12-16.79,86.44,86.44,0,0,1-8.61,12.4,75.93,75.93,0,0,1-11.81,11.46,58.37,58.37,0,0,1-14.83,8.38,48.6,48.6,0,0,1-17.9,3.22,31.6,31.6,0,0,1-8.41-1.1,17.63,17.63,0,0,1-7.09-3.75,18.88,18.88,0,0,1-4.9-7.15,29.51,29.51,0,0,1-1.85-11.21c0-.11.18-1.7.53-4.78a100.76,100.76,0,0,1,3.38-14.6q2.85-10,8.81-25.82t16.83-38.45c1.85-4,4-6.83,6.42-8.56a13.28,13.28,0,0,1,7.87-2.58,14.76,14.76,0,0,1,3.85.54,12.48,12.48,0,0,1,3.72,1.73,9.29,9.29,0,0,1,2.78,3,8.16,8.16,0,0,1,1.07,4.17,10.6,10.6,0,0,1-.41,3,34.29,34.29,0,0,1-2.86,7q-2.19,4.32-5.09,9.89t-6.17,12q-3.24,6.44-6,13.34a133.28,133.28,0,0,0-4.76,14A60.64,60.64,0,0,0,185,297.84a10.39,10.39,0,0,0,1.33,5.19,4.64,4.64,0,0,0,4.37,2.36,27.54,27.54,0,0,0,16.43-5.66,72.11,72.11,0,0,0,14.45-14,133.41,133.41,0,0,0,12-18.05q5.37-9.66,8.94-17.65a89.51,89.51,0,0,0,4.44-11.46,116,116,0,0,1,4.18-11.31,34.6,34.6,0,0,1,5.17-8.63,9.16,9.16,0,0,1,7.29-3.45,9,9,0,0,1,7.55,3.6,13.79,13.79,0,0,1,2.78,8.63,24.53,24.53,0,0,1-1.79,7.78c-1.2,3.29-2.69,7.06-4.51,11.3s-3.77,8.77-5.89,13.58-4.09,9.71-5.9,14.67-3.3,9.84-4.51,14.6a55.51,55.51,0,0,0-1.78,13.26c0,3.78,1.93,5.65,5.83,5.65q4.09,0,10.21-2.82a69.47,69.47,0,0,0,12.79-7.93,116.91,116.91,0,0,0,13.38-12,95.75,95.75,0,0,0,11.86-14.91l1.31,21.33Z" transform="translate(-2.89 -102.89)"/><path class="cls-1" d="M309,284a87.07,87.07,0,0,0-2.85,8.41,30.55,30.55,0,0,0-1.39,8.55,7.74,7.74,0,0,0,.8,3.78,3.18,3.18,0,0,0,3.05,1.41,17.1,17.1,0,0,0,7-2,70.77,70.77,0,0,0,9-5.19c3.23-2.13,6.58-4.6,10.07-7.38s7-5.65,10.4-8.63,6.74-6,9.88-8.94,5.94-5.73,8.42-8.24a5.87,5.87,0,0,1,2.51-1.57,8.39,8.39,0,0,1,2.51-.46,5.34,5.34,0,0,1,4.38,2.19,9.19,9.19,0,0,1,1.71,5.81,18.06,18.06,0,0,1-1.85,7.38,23.42,23.42,0,0,1-6.49,8q-8.49,9.27-17.1,17.57a175.31,175.31,0,0,1-17.15,14.68,92.19,92.19,0,0,1-17,10.13,40,40,0,0,1-16.37,3.76,21,21,0,0,1-9.08-1.73,15.1,15.1,0,0,1-5.84-4.71,18.93,18.93,0,0,1-3.11-7.06,38.83,38.83,0,0,1-.93-8.63,68.58,68.58,0,0,1,1.92-15.77,109.91,109.91,0,0,1,4.57-14.83q4.65-12.24,9.42-24.32t8.75-22.14l40.14-101.24c1.59-4.07,3.73-7,6.43-8.63a15.36,15.36,0,0,1,8.15-2.51,11.86,11.86,0,0,1,7.49,2.66q3.38,2.67,3.38,8.63a17.49,17.49,0,0,1-1.13,6c-.75,2.09-1.7,4.35-2.84,6.75q-3.31,7.38-7.88,18T348.19,187q-5.24,12.57-10.73,26.13T326.72,239.6q-5.24,12.87-9.8,24.4T309,284Z" transform="translate(-2.89 -102.89)"/><path class="cls-1" d="M496.78,255.61a30.62,30.62,0,0,1,3.44-2.05,6.9,6.9,0,0,1,3-.78,4.75,4.75,0,0,1,4.38,2.59,12.84,12.84,0,0,1,1.46,6.36,21.1,21.1,0,0,1-1.79,8.31,17.59,17.59,0,0,1-5.37,7.07q-14.19,12.56-25.3,22.91a274.17,274.17,0,0,1-21,17.82,95,95,0,0,1-19.27,11.53,50.08,50.08,0,0,1-20.15,4.07q-10.08,0-15.57-4.39T395.14,317v-1.17a8.35,8.35,0,0,1,.14-1.34c.35-3.14,1.73-6.75,4.1-10.82A127.85,127.85,0,0,1,408,290.91c3.35-4.41,6.93-8.84,10.73-13.34s7.31-8.76,10.54-12.79a124.71,124.71,0,0,0,8-11.07c2.12-3.35,3.18-6.05,3.18-8.16a3.69,3.69,0,0,0-1.32-3,6.92,6.92,0,0,0-4.37-1.09,24.71,24.71,0,0,0-10.93,2.75,53.94,53.94,0,0,0-11.13,7.36A100,100,0,0,0,402,262.19a157.48,157.48,0,0,0-9.8,12.41c-3.05,4.3-5.83,8.6-8.34,12.94s-4.66,8.35-6.42,12q-.8,1.74-2.26,4.88c-1,2.09-2,4.45-3.17,7.06s-2.36,5.31-3.65,8.08-2.45,5.39-3.51,7.84-2,4.65-2.85,6.6-1.45,3.27-1.79,4c-.45.95-1.17,2.72-2.2,5.34s-2.18,5.67-3.51,9.19-2.73,7.18-4.17,11.06-2.83,7.53-4.1,11-2.41,6.48-3.39,9.1-1.59,4.39-1.86,5.33a58.36,58.36,0,0,1-3.11,7.7,31.06,31.06,0,0,1-4.11,6.36,18.58,18.58,0,0,1-5.3,4.39,13.62,13.62,0,0,1-6.69,1.64,13.19,13.19,0,0,1-7.9-2.27q-3.11-2.28-3.11-8.7a27.48,27.48,0,0,1,.8-6.44,58.66,58.66,0,0,1,2-6.51c.8-2.15,1.61-4.24,2.45-6.27s1.61-4,2.32-5.89q7.14-15.7,14.58-31.47t14.24-31.24q6.83-15.45,12.66-30.37t9.67-28.57c.7-1.88,1.68-4.55,2.91-8a108.81,108.81,0,0,1,4.24-10.21,43.38,43.38,0,0,1,5.37-8.7c2-2.47,4.13-3.69,6.42-3.69,3.53,0,6.09.82,7.68,2.44s2.39,4,2.39,7.14a25.43,25.43,0,0,1-.27,3c-.18,1.35-.4,2.79-.66,4.31s-.56,3-.86,4.32a22,22,0,0,1-.85,3c3.26-3.56,6.79-7.08,10.6-10.6a109.8,109.8,0,0,1,11.8-9.5,68.57,68.57,0,0,1,12.45-6.91,32.61,32.61,0,0,1,12.71-2.66,30.74,30.74,0,0,1,8.68,1.26,25.06,25.06,0,0,1,7.68,3.68,19.49,19.49,0,0,1,5.51,6.12,16.93,16.93,0,0,1,2.11,8.56,34,34,0,0,1-3.24,13.74A100.69,100.69,0,0,1,456,263.29q-4.92,7.38-10.6,14.36t-10.68,12.72q-4.95,5.73-8.34,9.73c-2.25,2.67-3.43,4.48-3.52,5.41a4.21,4.21,0,0,0,1.19,3.07c.78.79,2.12,1.17,4,1.17q2.26,0,6.63-2.51a110.52,110.52,0,0,0,12.26-8.71q7.88-6.19,20-16.64t29.89-26.28Z" transform="translate(-2.89 -102.89)"/></svg>