<svg id="Capa_1" data-name="Capa 1" xmlns="http://www.w3.org/2000/svg" viewBox="0 0 550 227.28"><defs><style>.cls-1{fill:#333;}</style></defs><path class="cls-1" d="M550,260.86v27.28c-36.36-1-29.52,23.66-29.29,47.47,0,34.85-2,53-52.53,53V362.88c21.72-1,21.21-11.11,21.21-35.86-1-39.89,1-42.92,25.26-52-24.75-10.85-27.28-16.91-25.76-51.51.5-34.85-2.53-36.11-20.71-36.36V161.37c57.58-.55,53.17,25.75,52.53,56.06C518.69,252.28,523.74,261.37,550,260.86Z" transform="translate(0 -161.36)"/><path class="cls-1" d="M113.64,283.09c-.2-30.44.5-121.73.5-121.73H81.82c-57.58-.55-53.17,25.75-52.53,56.06,2,34.85-3,43.94-29.29,43.43v27.28c36.36-1,29.52,23.66,29.29,47.47,0,34.85,2,53,52.53,53V362.88c-21.72-1-21.21-11.11-21.21-35.86,1-39.89-1-42.92-25.26-52,24.75-10.85,27.28-16.91,25.76-51.51-.5-34.85,2.53-36.11,20.71-36.36V295.71c0,40.53,20.45,61,69.19,49V322C114.39,326.77,114.39,318.82,113.64,283.09Z" transform="translate(0 -161.36)"/><path class="cls-1" d="M144.32,278.54c0,65.28,51.51,69.57,70.07,69.57,23.87,0,44.7-12.63,44.7-12.63l-4.92-22.16c-49.76,20.65-78.41,9.29-78-27.46h87.5C276.52,187.76,143.44,178.67,144.32,278.54ZM176.89,265c0-25.76,19.7-33.71,29.93-33.71,20.07,0,26.89,16.84,26.89,33.71Z" transform="translate(0 -161.36)"/><path class="cls-1" d="M363.64,218.82c-23.87-16.86-93.56-19.16-93.56,27.65,0,30.11,24.11,35.28,36.74,40.53,24.62,10.23,32.17,14.06,29.92,25.38-5,25.12-62.88,0-62.88,0l-3.78,24.24c23.48,17.42,98.1,20.08,98.1-31.44,0-29.17-31.47-39.67-43.18-42.8-21.21-5.68-34.18-18.82-17.42-29,12.5-7.58,48.29,7.58,48.29,7.58Z" transform="translate(0 -161.36)"/><path class="cls-1" d="M467.05,218.82c-23.87-16.86-93.57-19.16-93.57,27.65,0,30.11,24.12,35.28,36.75,40.53,24.62,10.23,32.17,14.06,29.92,25.38-5,25.12-62.88,0-62.88,0l-3.79,24.24C397,354,471.59,356.7,471.59,305.18c0-29.17-31.47-39.67-43.18-42.8-21.21-5.68-34.18-18.82-17.43-29,12.5-7.58,48.3,7.58,48.3,7.58Z" transform="translate(0 -161.36)"/></svg>