<svg id="Capa_1" data-name="Capa 1" xmlns="http://www.w3.org/2000/svg" viewBox="0 0 512 269.33"><defs><style>.cls-1{fill:#333;}</style></defs><path class="cls-1" d="M149.55,217.74H129.41l-11,56.49H136.3q17.79,0,26.49-6.7c5.81-4.48,9.71-11.92,11.74-22.38,2-10,1.06-17.11-2.65-21.22S160.73,217.74,149.55,217.74ZM256,121.33C114.62,121.33,0,181.62,0,256S114.62,390.67,256,390.67,512,330.36,512,256,397.38,121.33,256,121.33Zm-69.55,159A51.7,51.7,0,0,1,166.89,292c-7.17,2.31-16.32,3.5-27.41,3.5h-25.2l-7,35.86H77.91l26.24-134.95h56.53q25.51,0,37.21,13.4t7,37.37a60.38,60.38,0,0,1-6.51,18.07A61,61,0,0,1,186.45,280.29Zm85.85,15.25,11.58-59.71c1.35-6.78.83-11.43-1.45-13.89s-7.17-3.71-14.65-3.71h-23.3l-15,77.33H200.28l26.24-135h29.16l-7,35.88h26q24.54,0,33.83,8.55t5.61,27.72l-12.2,62.8Zm162.07-48.32a59.38,59.38,0,0,1-6.51,18.07,61,61,0,0,1-12,15A52,52,0,0,1,396.33,292c-7.17,2.31-16.32,3.5-27.43,3.5H343.72l-7,35.88h-29.4l26.24-135H390.1q25.5,0,37.21,13.4T434.37,247.22ZM379,217.74H358.89l-11,56.49h17.88q17.82,0,26.5-6.7c5.8-4.48,9.7-11.92,11.75-22.38,2-10,1.05-17.11-2.67-21.22S390.17,217.74,379,217.74Z" transform="translate(0 -121.33)"/></svg>