<svg id="Capa_1" data-name="Capa 1" xmlns="http://www.w3.org/2000/svg" viewBox="0 0 429 504.71"><defs><style>.cls-1{fill:#333;}</style></defs><path class="cls-1" d="M390.57,214.67q0,54.09-38.85,91.72t-95,37.64q-56.62,0-95.47-37.41t-38.84-92q0-54,39.09-91.47t95.22-37.39q56.14,0,95,37.39t38.84,91.47ZM114.93,3.65C74.65,3.65,42,35.81,42,75.48V354.35c0,39.68,32.65,71.84,72.93,71.84l12.06,0c5.24,35,26.63,78,111.63,82.18-44.69-23.48-37.24-55.77-18.63-82.18l178.08,0c40.28,0,72.93-32.16,72.93-71.84V75.48c0-39.67-32.65-71.83-72.93-71.83Zm208,211q0-26-19.54-44.8a65,65,0,0,0-46.62-18.78q-27.56,0-47.1,18.53t-19.54,45q0,26.51,19.54,45.3t47.1,18.78q27.57,0,46.87-18.78T322.9,214.67Z" transform="translate(-42 -3.65)"/></svg>