<svg id="Capa_1" data-name="Capa 1" xmlns="http://www.w3.org/2000/svg" viewBox="0 0 512 512"><defs><style>.cls-1{fill:#333;}</style></defs><path class="cls-1" d="M260.41,0C121.47,0,8.83,112.64,8.83,251.59A250.26,250.26,0,0,0,44,379.91L0,512l143.36-37.72a250.52,250.52,0,0,0,117.05,28.89c139,0,251.59-112.64,251.59-251.58S399.36,0,260.41,0ZM416.68,363.6l-15.52,15.52c-49.23,49.23-104.81,25-154-24.24l-45-45-45-45c-49.23-49.23-73.47-104.81-24.24-154l15.52-15.52a24.06,24.06,0,0,1,28.27-4.26c22,11.62,47.06,54.46,47.06,54.46,5.53,9.69,6.15,21.38-3.7,26.92,0,0-16.7,13.92-19.1,17.46-10.95,16.17-10.53,31.15,4.59,46.27l35.15,35.14,35.14,35.15c15.12,15.12,30.1,15.54,46.27,4.59,3.54-2.4,17.46-19.1,17.46-19.1,5.53-9.85,17.23-9.23,26.92-3.7,0,0,42.84,25.1,54.46,47.06A24.08,24.08,0,0,1,416.68,363.6Z"/></svg>