<svg id="Capa_1" data-name="Capa 1" xmlns="http://www.w3.org/2000/svg" viewBox="0 0 504 504"><defs><style>.cls-1{fill:#333;}</style></defs><path class="cls-1" d="M4,10V502a6,6,0,0,0,6,6H502a6,6,0,0,0,6-6V10a6,6,0,0,0-6-6H10A6,6,0,0,0,4,10ZM249.64,369.12l-10.46-39.93a6,6,0,0,0-5.8-4.48H176.85a6,6,0,0,0-5.8,4.48l-10.44,39.93a6,6,0,0,1-5.81,4.48H116.57a6,6,0,0,1-5.72-7.79l70.89-226.88a6,6,0,0,1,5.73-4.21h35.32a6,6,0,0,1,5.72,4.2L299.88,365.8a6,6,0,0,1-5.72,7.8H255.44A6,6,0,0,1,249.64,369.12Zm115.44,4.48H330.49a6,6,0,0,1-6-6V202.09a6,6,0,0,1,6-6h34.59a6,6,0,0,1,6,6V367.6A6,6,0,0,1,365.08,373.6Zm1-205.73c-4.55,4.7-10.68,7-18.46,7s-13.91-2.35-18.46-7-6.81-10.62-6.81-17.73,2.3-13.12,6.89-17.72,10.74-6.89,18.38-6.89,13.78,2.3,18.38,6.89,6.89,10.5,6.89,17.72S370.61,163.16,366.07,167.87Z" transform="translate(-4 -4)"/><path class="cls-1" d="M190,279.76h37.18l-18.59-70.95Z" transform="translate(-4 -4)"/></svg>