<svg id="Capa_1" data-name="Capa 1" xmlns="http://www.w3.org/2000/svg" viewBox="0 0 512 512"><defs><style>.cls-1{fill:#333;}</style></defs><path class="cls-1" d="M162,384h111.2c57.73,0,92.42-29.06,92.42-76.67,0-35.27-24.35-61.31-60.93-65.09V239c26.63-4.48,47.43-29.76,47.43-58.11,0-41.6-30.56-67.52-81.35-67.52H162Zm42-156V149.06h57c31.14,0,49.34,14.62,49.34,39.58C310.3,214.3,291,228,253.86,228Zm0,120.38v-87.2h58.3c39.56,0,60.39,14.82,60.39,43.14,0,28.67-20.07,44.06-57.95,44.06Z"/><path class="cls-1" d="M0,128A128,128,0,0,1,128,0H384A128,128,0,0,1,512,128V384A128,128,0,0,1,384,512H128A128,128,0,0,1,0,384ZM128,32a96,96,0,0,0-96,96V384a96,96,0,0,0,96,96H384a96,96,0,0,0,96-96V128a96,96,0,0,0-96-96Z"/></svg>