<svg id="Capa_1" data-name="Capa 1" xmlns="http://www.w3.org/2000/svg" viewBox="0 0 512 512"><defs><style>.cls-1{fill:#333;}</style></defs><path class="cls-1" d="M486.47,0H25.53A25.53,25.53,0,0,0,0,25.53V486.47A25.53,25.53,0,0,0,25.53,512H486.47A25.53,25.53,0,0,0,512,486.47V25.53A25.53,25.53,0,0,0,486.47,0ZM279.06,401.88c0,78.59-112,95.06-144,26.36l38.59-23.53c12.7,22.58,23.21,24.16,33.41,23.53,7.53-.48,21.18-2.36,23.53-24.48V234.82h48.47Zm26.82,21.18L344,400.47c11.76,25.88,60.24,41.41,76.24,17.41,11.65-17.48,7.05-32.47-56-55.53-23.54-8.6-58.36-42.82-40.48-91.29,18.73-50.75,109.65-54.12,133.65,0l-36.7,23.53c-1.18-7.06-27.65-36-48-15.06-18.47,24.23,12.79,39.61,24.47,44.71,25.88,11.29,74.82,27.65,74.82,80C472,502.59,322.35,480.47,305.88,423.06Z"/></svg>