<svg id="Capa_1" data-name="Capa 1" xmlns="http://www.w3.org/2000/svg" viewBox="0 0 502.12 502.12"><defs><style>.cls-1{fill:#333;}</style></defs><path class="cls-1" d="M477.23,4.94H34.77A29.84,29.84,0,0,0,4.94,34.77V477.23a29.84,29.84,0,0,0,29.83,29.83H477.23a29.84,29.84,0,0,0,29.83-29.83V34.77A29.84,29.84,0,0,0,477.23,4.94ZM191.61,384.76,94.14,340c-9-3.66-12.85-3.43-12.85,6.2v29.26c0,16.4-25.69,15.95-25.69,0V335.58c0-28.8,24.81-30.13,45.63-20.38l102.34,46.07C222.48,370.28,210.58,394.8,191.61,384.76Zm12-131.57L101.23,299.27C80.41,309,55.6,307.69,55.6,278.89v-144c0-16,25.69-16.39,25.69,0V268.26c0,9.63,3.88,9.86,12.85,6.2l97.47-44.75C210.58,219.67,222.48,244.19,203.57,253.19Zm50.29,126c-7,15.92-32.91,7.37-27.11-9.65l49.67-130c8.69-21.45,36.95-10.19,27.11,11.41Zm180.37-43L325.57,385C307.43,395.46,294,371.76,313,361.82l97-42.17c8.1-5.32,7.58-9.45-.36-14.92-.44-.3-92.18-53.33-92.18-53.33-13.51-9.3,1.43-30.22,14.57-21.17l109.36,67.09C463.64,309.74,458.77,326.3,434.23,336.21Z" transform="translate(-4.94 -4.94)"/></svg>