<svg id="Layer_1" data-name="Layer 1" xmlns="http://www.w3.org/2000/svg" viewBox="0 0 512 510.87"><defs><style>.cls-1{fill:#333;}</style></defs><path class="cls-1" d="M119.18,164.72H16.4A8.25,8.25,0,0,0,8.14,173V503.18a8.26,8.26,0,0,0,8.26,8.26H119.18a8.26,8.26,0,0,0,8.26-8.26V173A8.25,8.25,0,0,0,119.18,164.72Z" transform="translate(0 -0.56)"/><path class="cls-1" d="M67.83.56A67.77,67.77,0,1,0,135.6,68.31,67.87,67.87,0,0,0,67.83.56Z" transform="translate(0 -0.56)"/><path class="cls-1" d="M380.62,156.51c-41.28,0-71.8,17.75-90.31,37.91V173a8.25,8.25,0,0,0-8.26-8.25H183.62a8.25,8.25,0,0,0-8.26,8.25V503.18a8.26,8.26,0,0,0,8.26,8.26H286.18a8.26,8.26,0,0,0,8.26-8.26V339.8c0-55.05,14.95-76.5,53.33-76.5,41.79,0,45.12,34.39,45.12,79.34V503.18a8.25,8.25,0,0,0,8.25,8.26h102.6a8.26,8.26,0,0,0,8.26-8.26V322.06C512,240.19,496.39,156.51,380.62,156.51Z" transform="translate(0 -0.56)"/></svg>