<svg id="Capa_1" data-name="Capa 1" xmlns="http://www.w3.org/2000/svg" viewBox="0 0 504 504"><defs><style>.cls-1{fill:#333;}</style></defs><path class="cls-1" d="M188.88,179.44h-21a7,7,0,0,0-7,7v48.07a7,7,0,0,0,7,7h20.62q11.49,0,17.78-7.52t6.29-21.88q0-14.91-6.43-23.71A20.62,20.62,0,0,0,188.88,179.44Z" transform="translate(-4 -4)"/><path class="cls-1" d="M4,11V501a7,7,0,0,0,7,7H501a7,7,0,0,0,7-7V11a7,7,0,0,0-7-7H11A7,7,0,0,0,4,11ZM245.33,269.26q-20.81,20.36-57.74,20.34H162.44a7,7,0,0,0-7,7v70a7,7,0,0,1-7,7H114.2a7,7,0,0,1-7-7V141.72a7,7,0,0,1,7-7h74.38q35.43,0,56.52,22t21.08,57.09Q266.18,248.9,245.33,269.26Zm156.53,93.18Q384,376.89,354.94,376.88q-19.53,0-34.46-7.63A58,58,0,0,1,297.09,348a55.22,55.22,0,0,1-7.87-21.28,7,7,0,0,1,6.92-8.09h30.24a7,7,0,0,1,6.9,5.85c.81,5.23,2.51,9.36,5.16,12.36,3.56,4.05,9.37,6.07,17.47,6.07q18.7,0,18.7-16.9,0-5.91-5.66-10.91t-25.17-13.52q-28.71-11.64-39.46-24.13c-7.18-8.33-10.76-18.64-10.76-31q0-23.31,16.82-38.47t44.54-15.17q29.18,0,46.75,15.08,14.81,12.7,17.12,32.78a7,7,0,0,1-7,7.75H379.31a7,7,0,0,1-6.91-5.91q-2.25-15.74-17.65-15.75a16.84,16.84,0,0,0-12.15,4.59c-3.19,3.06-4.75,7.34-4.75,12.8q0,5.9,5.26,10.42c3.51,3,11.74,7.3,24.78,12.88Q396.29,278,408,290.83t11.72,33.38Q419.73,348,401.86,362.44Z" transform="translate(-4 -4)"/></svg>