<svg id="Capa_1" data-name="Capa 1" xmlns="http://www.w3.org/2000/svg" viewBox="0 0 502.71 502.71"><defs><style>.cls-1{fill:#333;}</style></defs><path class="cls-1" d="M256,4.65C117.18,4.65,4.65,117.18,4.65,256S117.18,507.35,256,507.35,507.35,394.82,507.35,256,394.82,4.65,256,4.65ZM411.63,152.12c-22.76,65.22-80.47,78.93-102,84.17-46.42,11.27-90.17-.28-96.11-24.34-1.58-6.39,1-7.19,6.16-2.77C267.4,250.46,368,189.5,380.44,156.81c20.33-53.29-14.17-64.37-73.31-57.91-44.81,4.91-113.35,35.74-158.32,87.49-15.28,17.57-26.65,61.22,19.09,91.17,21.74,14.24,37.06,27.44,47.31,40,39.86-12.33,73.21-5.08,94.08,14.35,17.68,16.46,25.72,51.13-6.47,66.53-5.79,2.77-9.7-2.46-3.7-5.08,15.29-6.66,27.42-29.88-6.46-54.52-9.18-6.67-36.4-15.63-67.79-7,15,28.05,5.61,53.6-12.15,81.6-24.57,38.76-82.14,40.63-93.56,19.64-23.64-43.43,25.48-77.86,47.13-91.95a217.18,217.18,0,0,1,28.57-15.8,149.31,149.31,0,0,0-18.18-13.31c-50.91-32.71-99-74.23-72.85-120.44C140.53,126.86,208.67,85.3,297.12,67.79,342.25,58.86,440.2,70.26,411.63,152.12Z" transform="translate(-4.65 -4.65)"/><path class="cls-1" d="M142.26,407c-.6,19.33,24.34,11.78,31.42,7.86,9.32-5.16,39.2-25.8,34.19-67a31.33,31.33,0,0,0-2.14-8.57A111.47,111.47,0,0,0,194.24,346C192.35,347.29,143.26,374.9,142.26,407Z" transform="translate(-4.65 -4.65)"/></svg>