<svg id="Capa_1" data-name="Capa 1" xmlns="http://www.w3.org/2000/svg" viewBox="0 0 505.36 505.36"><defs><style>.cls-1{fill:#333;}</style></defs><path class="cls-1" d="M256.49,3.81C116.94,3.81,3.81,116.94,3.81,256.49S116.94,509.18,256.49,509.18,509.18,396.05,509.18,256.49,396.05,3.81,256.49,3.81Zm-.5,25A226.33,226.33,0,0,1,408.25,87.42c-31.84,2.32-56.37,39.66-22.46,85.5,30.45,41.16,25.45,78.49,19.25,104.26-7.12,29.63-35.6,116.6-35.6,116.6L287.78,149.53s17-.22,26.81-2.4c11.44-2.54,10.9-19.25-4-18-35.79,2.91-76.11,4.24-117,0C180.2,127.7,177.82,146,191.57,148c6.33.89,23.25,1.93,23.25,1.93l35.84,97.36L199.8,396.45,117,149.91s20.27-1,26.88-2.42c13.08-2.72,10-19.8-2.42-18.4-20.88,2.34-57.14,2.56-75.54,2.5A227,227,0,0,1,256,28.83ZM28.83,256a226.43,226.43,0,0,1,19.79-92.86l107.06,296.7A227.13,227.13,0,0,1,28.83,256ZM256,483.14A227.17,227.17,0,0,1,191.94,474l68.53-197.52,71,193.83A226.76,226.76,0,0,1,256,483.14Zm115.06-31.27c9-26.74,53.93-159.35,71.41-206.3,8.64-23.21,20-50.34,15.26-94.09a227.3,227.3,0,0,1-86.67,300.39Z" transform="translate(-3.81 -3.81)"/></svg>