<svg id="Capa_1" data-name="Capa 1" xmlns="http://www.w3.org/2000/svg" viewBox="0 0 504.62 322.64"><defs><style>.cls-1{fill:#333;}</style></defs><polygon class="cls-1" points="75.04 43.84 75.04 0 47.22 0 47.22 43.84 0 43.84 0 74.2 45.53 74.2 45.53 118.88 75.04 118.88 75.04 74.2 122.25 74.2 122.25 43.84 75.04 43.84"/><polygon class="cls-1" points="292.57 123.1 264.46 275.99 232.43 123.1 219.5 123.1 206.57 123.1 174.53 275.99 146.43 123.1 125.63 123.1 163.29 322.64 186.33 322.64 219.5 167.5 252.66 322.64 275.71 322.64 313.37 123.1 292.57 123.1"/><polygon class="cls-1" points="419.46 123.1 334.3 123.1 334.3 140.8 410.19 140.8 410.19 322.64 419.46 322.64 428.74 322.64 428.74 140.8 504.62 140.8 504.62 123.1 419.46 123.1"/></svg>