<svg id="Capa_1" data-name="Capa 1" xmlns="http://www.w3.org/2000/svg" viewBox="0 0 504.47 504.47"><defs><style>.cls-1{fill:#333;}</style></defs><path class="cls-1" d="M3.76,9.42V502.58a5.67,5.67,0,0,0,5.66,5.66H502.58a5.67,5.67,0,0,0,5.66-5.66V9.42a5.67,5.67,0,0,0-5.66-5.66H9.42A5.67,5.67,0,0,0,3.76,9.42Zm175,194.39,25.51-65.09a5.65,5.65,0,0,1,5.27-3.59h42.55a5.65,5.65,0,0,1,5.11,8.07L206,251.27a5.64,5.64,0,0,0,0,4.85l52.47,110a5.66,5.66,0,0,1-5.11,8.09H210.18a5.65,5.65,0,0,1-5.26-3.58l-26.16-66.58a5.65,5.65,0,0,0-10.53,0l-26,66.56a5.67,5.67,0,0,1-5.27,3.59H93.78a5.66,5.66,0,0,1-5.11-8.09l52.46-110a5.63,5.63,0,0,0,0-4.86L89.8,143.21a5.65,5.65,0,0,1,5.1-8.08h42.54a5.65,5.65,0,0,1,5.27,3.59l25.51,65.09A5.65,5.65,0,0,0,178.75,203.81ZM274,280q0-43.7,14.78-65.2t43-21.5a39.73,39.73,0,0,1,25.1,8.49,5.64,5.64,0,0,0,9.05-4.51V127.67a5.65,5.65,0,0,1,5.65-5.66h35.5a5.65,5.65,0,0,1,5.65,5.66V368.59a5.65,5.65,0,0,1-5.65,5.66H375.56a5.66,5.66,0,0,1-5.62-5h0a5.64,5.64,0,0,0-9.49-3.44,40.15,40.15,0,0,1-28.85,11.72q-27.89,0-42.61-21.35t-15-62.72V280Zm46.64,11.65q0,26.28,5.59,36.71t18.88,10.43Q358,338.77,365,328a5.84,5.84,0,0,0,1-3.17V246.8a5.36,5.36,0,0,0-.71-2.74q-6.87-11.87-20-11.85-12.81,0-18.72,10.34t-5.92,36.79Z" transform="translate(-3.76 -3.76)"/></svg>